<svg xmlns="http://www.w3.org/2000/svg" viewBox="0 0 217.83 225.49"><defs><style>.cls-1{fill:#2a327a;}</style></defs><g id="Layer_2" data-name="Layer 2"><g id="Layer_1-2" data-name="Layer 1"><path class="cls-1" d="M135.73,53c11.53,0,22.26-.15,33,0,11.21.2,18.47,10.46,15,21.1-.81,2.45-2.57,4.58-4,7,4.31,6.82,4.74,13.71-.78,20.46a3.06,3.06,0,0,0-.18,2.75c4.25,7.49,3.3,14.28-2.59,20.53,3.32,5.27,4.91,10.74,2.05,16.65-3.05,6.3-8.44,9.29-15.1,9.28-17.1,0-34.21-.08-51.28-.8-9.73-.41-18.77-4-27.56-8.33a30.15,30.15,0,0,0-11.69-2.82c-9-.41-18-.1-27-.14-8.78,0-12.69-3.95-12.69-12.67q0-26.46,0-52.92c0-9.55,3.85-13.43,13.24-13.45s18.82,0,28.23-.05a7,7,0,0,0,4.07-1C91.83,48,102.79,35.38,108.68,18.87c1-2.75,1.56-5.66,2.57-8.4C114.06,2.82,121.5-1.19,129.82.31,137,1.61,143,8,142.47,15.55c-.55,8.19-2.38,16.31-3.81,24.43C137.92,44.15,136.82,48.25,135.73,53ZM83.42,98.61c0,9.76-.08,19.52.09,29.27a5.59,5.59,0,0,0,2,4.1,64.52,64.52,0,0,0,32.82,9.49c14.45.12,28.9.15,43.35.19a17.66,17.66,0,0,0,3.17-.22c3.32-.56,5.34-2.61,5.28-6s-1.8-5.85-5.39-6.38c-1.44-.21-2.91-.09-4.37-.2-2.9-.22-4.89-1.68-4.85-4.72s1.93-4.5,4.91-4.65a40.3,40.3,0,0,0,6.7-.57c3.17-.72,5.15-2.75,4.76-6.3s-2.14-5.68-5.82-5.87c-1.19-.06-2.4,0-3.58-.11-2.93-.34-5.21-1.57-5-5s2.28-4.5,5.38-4.52a24.41,24.41,0,0,0,6.29-.55c3-.85,5.22-2.83,4.72-6.39s-2.4-5.87-6.32-5.83a21,21,0,0,1-4-.12c-2.65-.48-4.43-2.12-4.33-4.9s1.93-4.31,4.66-4.53c1.58-.14,3.18,0,4.77-.07,4.15-.23,7-2.7,7.15-6.07.14-3.78-2.41-6.2-7-6.55-1-.09-2.12,0-3.18,0-10.08,0-20.15.06-30.23,0-5.63-.05-9.16-4-8.51-9.14.23-1.85.53-3.7.89-5.52,1.91-9.68,4-19.32,5.7-29,.84-4.88-1.2-7.89-4.94-8.64-4.39-.87-7.34,1-8.64,6-5.34,20.71-17.94,36.26-34,49.47a7.34,7.34,0,0,0-2.39,4.87C83.31,79.63,83.42,89.12,83.42,98.61ZM73.75,69c-9.82,0-19.22.05-28.61,0-2.33,0-2.91,1-2.91,3.16.05,17.89.08,35.78,0,53.67,0,2.95,1.2,3.58,3.81,3.54,7.55-.12,15.1,0,22.65,0h5.08Z"/><path class="cls-1" d="M107.55,160.52c5.4.25,7.9,2.17,9.35,5.5a87.73,87.73,0,0,1,3.38,8.52c.86,2.75,2.58,3.68,5.26,3.78,3.17.12,6.58-.09,9.42,1a14.65,14.65,0,0,1,7,5.69c1.66,2.89.4,6.26-2.23,8.64s-5.52,4.6-8,7.17a5.37,5.37,0,0,0-1.22,4c.45,3.14,1.49,6.2,2.14,9.32.76,3.64.15,7-2.94,9.37s-7,2.82-9.92.24c-7.32-6.47-14-6.3-21.37,0-2.9,2.5-6.77,2.09-10-.38s-3.77-5.58-2.75-9.31c.73-2.69,1-5.54,1.9-8.16,1-2.85.43-4.69-2-6.4a69.39,69.39,0,0,1-6.38-5.41c-2.66-2.35-4.3-5.17-3.16-8.83a8.39,8.39,0,0,1,7.91-6.22,80.89,80.89,0,0,0,9.86-1,6.56,6.56,0,0,0,3.94-2.94c1.7-3.14,2.45-6.85,4.38-9.8C103.6,163,106.32,161.56,107.55,160.52ZM86.94,188.26c2.5,2.21,4.4,4,6.46,5.66,3.88,3,5.38,6.7,3.88,11.6-.83,2.69-1.23,5.51-1.78,8.08,4.65-2.11,9.08-5.67,13.49-5.66s8.87,3.6,14.52,6.17c-6.41-11.54-2.87-19.63,7.66-25.37-5.57-1.13-11.19-.82-14.74-3.4s-5.17-8.09-7.63-12.31C101.56,188.88,104.7,186,86.94,188.26Z"/><path class="cls-1" d="M47.49,225c-1.79-.93-5.23-2.13-7.94-4.25-4.29-3.37-8-3.6-12.2,0a22.92,22.92,0,0,1-6.15,3.59A7.82,7.82,0,0,1,12.67,223a8,8,0,0,1-2.8-8.23,11.51,11.51,0,0,1,.57-2.73c3.71-7.6,1.09-12.85-5.66-17C1.36,192.9-1,189.67.4,185.23S5.1,179,9.53,179c1.05,0,2.14-.57,3.13-.4,7.12,1.21,10.26-2.72,11.87-8.94a19.9,19.9,0,0,1,2-4.76c3.33-5.8,11-5.75,14.14.18a51.89,51.89,0,0,1,3.85,9.17c.94,3.14,2.88,4.07,5.84,4.15s5.79.52,8.69.77a8.12,8.12,0,0,1,7.43,5.73c1.17,3.46,0,6.56-2.79,9a64.87,64.87,0,0,1-6.35,5.43c-3,2-3.33,4.3-2.23,7.43A57.06,57.06,0,0,1,57,214C58.27,219.86,54.63,224.88,47.49,225ZM11.7,187.66c3.83,4.36,8.5,7.54,9.83,11.79s-.73,9.51-1.41,15.31c8.78-8.73,17.62-8.94,27-.32-5.41-11.63-2.34-20,9.16-26.1-4.2-.48-6.81-1-9.41-1-5.38,0-8.65-2.54-10.34-7.59-.8-2.38-1.9-4.65-2.87-7l-1.12-.39C30.94,185,23.33,189.14,11.7,187.66Z"/><path class="cls-1" d="M198.75,225c-1.8-.93-5.28-2.09-8-4.25-4.32-3.48-8-3.56-12.22,0a24.65,24.65,0,0,1-5.79,3.45,8.39,8.39,0,0,1-11.63-9.54c.95-4.14,3.33-8.84,2.19-12.33s-5.91-5.76-9-8.67c-2.47-2.33-3.85-5.15-2.65-8.63a8.37,8.37,0,0,1,7.3-5.94c2-.26,4-.88,5.91-.63,5.87.79,8.72-2.11,10.06-7.45a34.37,34.37,0,0,1,2.08-5.18c1.41-3.21,3.72-5.11,7.33-5.2,3.79-.1,6.3,1.83,7.79,5.13,1.38,3,2.26,6.31,3.88,9.18a7.26,7.26,0,0,0,4.27,3.14,69.07,69.07,0,0,0,9.47,1c3.64.32,6.21,2,7.48,5.6,1.35,3.75.26,6.82-2.56,9.38a60.94,60.94,0,0,1-6.66,5.7c-2.44,1.66-2.68,3.52-1.87,6.08s1.49,5.4,2.08,8.13C209.51,219.85,205.91,224.87,198.75,225Zm-36.16-36.76c11.17,6.2,13.25,14.87,8.3,26.33,9.26-8.83,18.08-8.67,27.52-.17-5.58-11.7-2.23-20,8.27-25.64-5.56-1.17-11.18-.91-14.75-3.51s-5.1-8.07-8.05-13.19C182.15,184.78,174.74,189.24,162.59,188.24Z"/><path class="cls-1" d="M65.28,113.39a7.23,7.23,0,0,1-7.38,7.18,7.41,7.41,0,0,1-7-7.22,7.21,7.21,0,1,1,14.41,0Z"/></g></g></svg>