<svg xmlns="http://www.w3.org/2000/svg" viewBox="0 0 176.45 267.29"><defs><style>.cls-1{fill:#2a327a;}</style></defs><g id="Layer_2" data-name="Layer 2"><g id="Layer_1-2" data-name="Layer 1"><path class="cls-1" d="M123.12,244.15l2.93,2.38-2.92,3.31c-4.42-1.06-7.76-5.54-12.72-3.06.22,2.92,0,3.15-2.74,2.83-3.58-.42-3.58-.42-6,.74-4.74-5.09-11.84-5.63-16.84-1.2a5.69,5.69,0,0,0-1.52,2.48c-.37,1.25-.12,2.74-.68,3.87a35.7,35.7,0,0,1-3.38,4.73A16.84,16.84,0,0,1,76.29,259c-5.72-3.78-11.31-3.58-16.67.58a38.25,38.25,0,0,1-3.87,2.4l-2.29,4.89-1.31.45-2.49-4.18-5.59,1.56c-1.39-2.48.12-4.09,1.79-4.32,4.84-.68,6.78-4.34,9.1-7.75A12.24,12.24,0,0,1,57,249.87c6.06-5,6.08-5,7.51-11.88l4.34-1.33c.75-1.66,1.06-3.79,2.27-4.66s3.46-.95,5.23-.92c2.48,0,4.94.57,7.42.71,2.27.13,4.57,0,6.77,0,1.78-4.86,1.78-4.86,6.52-9.67l.2-.32-.16.36c-2.88,0-5.65.36-7.66,2.73-2.71,3.19-5.84,2.63-8.71.32-1.66-1.34-3.34-2.66-5.24-4.17l-5.67,1.45L67.12,216c-2.46,1.24-4.76,2.32-7,3.54-2.8,1.54-3.76,1.37-6.06-1.42l.2-.25-.16.29a4.37,4.37,0,0,1-1-.25,4.17,4.17,0,0,1-.76-.73c.23-.39.48-.79.71-1.2s.44-.83.79-1.51l-3.61-2.19C53,210.77,54.81,209,57.6,208a49.31,49.31,0,0,0,11.52-6.44c3-2.12,3.86-5.23,3.27-9.2-.44-3,.12-6.08-2.16-8.82-3.51-1.6-5.36,4.61-9.37,2,.4-4,5.86-4.46,6.67-8.69-1.84-1.87-3.83-3.92-6-6.14l1.59-.54.25.19-.3-.15c2.55-4.06,3.58-4.18,6.82-.91,1,1,2.16,1.95,3.24,2.91l-.24.25.2-.29L77,170.28l.24-.24c3,1.37,5.69,0,8.58-1l4.16,2.86c-.64-1.64-1.06-2.74-1.63-4.21l2.8-.56.2.24-.23-.22c-1.14-3-1.49-5.81,1.37-8.17-1.53-2.62-2.52-4.94.26-7.53,1.2-1.12,1.27-3.47,2-5.63l-3.15-1.2-2.42,2.88c-.49-.1-1-.07-1.07-.25-2.19-3.4-4.36-6.82-6.48-10.26-.43-.7-1.12-1.64-.93-2.24a77.31,77.31,0,0,1,3.78-10.68c.74-1.59,2.68-2.61,3.77-3.61H83.55a85.43,85.43,0,0,1-8.14,5.44c-1.08.57-2.89.06-4.26-.34-1.05-.3-1.92-1.2-3.57-2.31v5.86c-4.19-.38-5.6-5-9.93-4.7l.7,5.21-.63.34c-1.51-2.53-3.13-5-4.46-7.62a3.55,3.55,0,0,1,.24-2.8c2.53-4.79,5.34-9.43,7.72-14.29.6-1.22.56-3.94-.21-4.46C56.79,98,57.57,94.1,58.08,90.15l2.69-1.69c-1.76,0-3.74-1.13-2.62,1.74-1.95,1.29-2.57,3.16-1.76,6.37C53.9,94.44,52.76,92,50.07,92.2c0-1.68,0-3.36,0-5,.21-.29.43-.59.12-.17.18-.49,0-.14-.07.22-2.28,1.57-2.28,2,0,5a21.3,21.3,0,0,1-.33,3.41c-.95,3.62-2.43,7.16-2.89,10.84-.38,3-1.82,3.43-4.54,3.49a21.63,21.63,0,0,1,1.7-10.69c1.53-3.39.46-6.19-.18-9.23a10.06,10.06,0,0,0-.76-1.84l0,.08,1.05-2.09-.05.08c2.3-1.25,2-3.19,1.63-5.33l-1.63.27,0,0L48,72l-.77-.74L47,71.09c0-.32,0-.64,0-1l4-4,.23-.37-.18.41c-2.3.36-3.47,1.85-4,4l-1.05,1,0,0-1.56.19c-.58,2.21-1.12,4.22-1.8,6.78-4.23-2.34-7.92,3.42-11.62-.26l5.25-4.07-4.18-4.33c3.81-2.94,3.81-2.94,6.91-.32l1,1,.34.25-.38-.21-1-1c.23-.9.47-1.79.68-2.61l-5.53-1.18c1.68-3.65,5.62-2,7.45-4.89-.88-1.87-1.83-4.14.72-6,.3-.22-.2-1.53-.33-2.33l2.49-1.52c-2.09-.71-2.29.39-2.43,1.57l-4.27,3c.38-2.26.61-3.62.81-4.78-1.81-.21-4.14.15-5.55-.82C31.41,48.43,30.47,46.13,29,44l-5.1-2.33,3.73-5.6,2.83,2c.56-2.17,1-3.95,1.54-6,2.84,1.43,4.07,3.26,4.24,5.75.09,1.31.41,2.27,1.91,2.38l0,0,.44,3.45-2.29.64c1.34.88,2.41,2,3.66,2.28s2.8-.21,4.21-.37l.24.23-.26-.21L44.28,44c-1-.44-2.15-.64-2.75-1.35-1-1.15-.9-3.3-.18-5.84l2.74.41.24.21-.21-.24c-3-2.9-2.11-6.64-3-10.82l3.45,1,.3-1.56,7.32-1.23-3.75-4.47,2.32-1.72-1.46-4.1,4-1.2c0-1.29-.46-2.83.09-3.43,2.19-2.38-.34-6.52,3.47-8.3,1,.28,2.9.2,3.46,1C62,4.76,64.28,1.55,66,3.44S69.9,3.27,71.86,3c3.68-.54,7.38-1,11-1.59.84-.14,1.54-1.19,2.36-1.29A49.75,49.75,0,0,1,90.92.05c0,2.67.47,5-.14,7.07a13.56,13.56,0,0,1-3.54,5.11c-3.86,3.88-8,7.5-11.83,11.39-.81.82-.87,2.36-1.28,3.57l-.2,0c-.49.32-.16.11.16-.1l3.6.39c-.65,3.13-2.62,4.58-5.78,4.86l1.63,1.28c-.46,1.17-.93,2.35-1.4,3.52l-1.62.92.47.54,1.09-1.51c2.54-1.17,5.06-2.35,7.61-3.49,1.19-.53,2.4-1,3.63-1.46.91-.33,2.15-1.12,2.73-.79,4.38,2.5,9.17-.13,13.69,1.31,1.88.6,4.25-.31,6.39-.54,2.59-.27,4.88-.16,6.42,2.58s2,5.11,0,7.38c-3.56,4-3,9.43-5.46,13.77-1.36,2.45-2.82,4.83-4.21,7.26a6.23,6.23,0,0,0-1,2.14c-.37,2.85-2.07,4.81-4.14,6.54-3.32,2.79-3.33,2.91,0,5.72a8.56,8.56,0,0,1,1,1.1,2.85,2.85,0,0,1-3.27,3C92.31,81,91,83,89.19,84.73A33.94,33.94,0,0,1,86,87.13c4.15,1.53,4.11,1.44,8.29-.49a4.9,4.9,0,0,1,3.76-.3c4.57,2.43,10.39,3.29,12.42,9.19a2.35,2.35,0,0,0,.89,1.18c5.82,3.47,5.55,9.61,6.91,15.14a146,146,0,0,0,4.84,15.07,8.48,8.48,0,0,0,6.58,5.54c4,.79,6.19,3.33,8,6.8,1.35,2.59,3.51,4.76,5.45,7.32-3.71,6.23,3.23,9.52,5.19,14.61h-5.27c-.34-.34-.68-.67-1-1l-1-1-.35-.24.4.19,1,1,1,1a42.93,42.93,0,0,0,3.3,2.91,14.09,14.09,0,0,1,4.84,6.77c1.17,3.09,1.14,5.75-1.79,8-1.14.86-1.87,2.27-3,3.72l5.38,3.23a26.26,26.26,0,0,1,1.67-3.21c.55-.77,1.31-1.86,2.07-1.94,5.08-.56,10.28-1.44,14.78,2.11,5.19,4.11,7.44,9.21,5.27,15.79a11.94,11.94,0,0,0-.51,2.43c-.39,3.4-1.54,6.3-4.39,8.49a7.72,7.72,0,0,0-2.56,3.5c-.89,2.78-2.81,3.31-5.15,3l-1.5,5.69-4.83,1.67,1.44,1.89-1,1-.21.26.16-.31,1-1c.33,0,.74-.15,1,0a14.44,14.44,0,0,0,11.48,1.28c0,2,0,3.47,0,4.89,0,1.82-.78,3.32-2.61,3.78-2.77.71-4.72,2.26-5.27,3.89-4.38,2.05-7.88,3.82-11.48,5.31a6,6,0,0,1-4.11.39c-4.56-2-9.08-1.65-13.6-.28a5.78,5.78,0,0,1-5-.26c-1.37-.75-3.54,0-5.35.05a1.23,1.23,0,0,0-.15-.35c0-.06-.17-.05-.26-.08Zm-68-163,.22-.31-.18.36-.23.28Zm26.17,5.72v-.27H80.1v.27Z"/><path class="cls-1" d="M42.09,129.14c1.84-.14,4-.53,4.72,1.68.81,2.6,2.43,5.29.83,8.15-.73,1.29-1.69,2.44-2.64,3.79H41.76l-3.12,6.39c-2.09-.69-3.75-1.55-5.48-1.69-1.56-.14-3.2.51-4.92.84l-8.38-11.08c-1.17,2.58-1.88,4.16-2.6,5.73-.91,2-2.08,3-4.61,2.88A11.08,11.08,0,0,1,4.35,142c-1.51-1.72-2.76-3.68-4.35-5.85l6.71-3.87-3-3.63c1.55-.63,2.64-1.38,3.78-1.47,2.54-.19,3.88-1.5,4.64-3.81,1-3.07,2.24-5.87,6.09-6.5a4.35,4.35,0,0,0,3-3c2.23-.39,4.44-.81,6.67-1.18a30.58,30.58,0,0,1,4.9-.69c3.46,0,4.27.7,5.35,4,1.8,5.5,1.87,5.6,6.09,9.51l-2.06,3.69-.34.22Zm3.33,8.08.64-.11-.5-3.47-.78.12C45,134.92,45.2,136.07,45.42,137.22Z"/><path class="cls-1" d="M35.11,14.17l-3.67,3.56c.81,3.6-.29,6.43-4.36,7.69-.81.26-1.36,1.33-2,2l-3.84,4-3-2.7,3.5-4.29-2.24-1.34c-1.49-7.84-1.49-7.84,2.68-8.93l0,0,.45,1.55.44-1.4.26-.25a34.38,34.38,0,0,1,3.57-3.76c2.26-1.79,4.72-3.33,7.29-5.1,2.17,3.11.73,5.75-.56,8.4l1.58.59Z"/><path class="cls-1" d="M43.12,88.13C41,91,38,93.38,37.82,97.49c0,1.38-1.38,2-4.88,3.15-.11-1.3-.21-2.53-.34-4.09l-3.1,1c-.42-4.88.38-5.75,7.29-7.77l7.33-8.57,0,0V86.2l.05-.08-1.05,2.09Z"/><path class="cls-1" d="M66.9,137.23c1.82,6.32-.28,9.82-6.47,10.55C61,143.2,62.94,139.73,66.9,137.23Z"/><path class="cls-1" d="M15,39.1l-4.4-4A32.41,32.41,0,0,1,13.9,33a32.25,32.25,0,0,1,3.55-1.33c.38,1.16,2.51,1.95.65,3.55l-.23-.25.25.23c.18,2,.18,3.94-2,5l-.06,0-.9-.9Z"/><path class="cls-1" d="M16.14,40.19V52.41l-1.26.3c-.71-1.49-2-3-2-4.46a51,51,0,0,1,.91-8.58c0-.24.83-.38,1.26-.57l.15.14.9.9Z"/><path class="cls-1" d="M55,104.2c-1.9,2-3.26,1.61-4.48.08-1.76-2.22-1.71-4.29.2-7.11C54.78,98.2,53.81,101.88,55,104.2Z"/><path class="cls-1" d="M30.09,54.19c1.46-.63,2.81-.8,3.89,1.3L32.1,57l-2-2.85Z"/><path class="cls-1" d="M20.61,71.3,25.26,70c-1.61,2.17-2.44,3.64-4.23,2.79Z"/><path class="cls-1" d="M26.27,68.19l3.55-3.42c0,3.11-1.31,3.72-2.64,4.29Z"/><path class="cls-1" d="M10.88,57l1.35-3.17c1.45,2.31.92,3.21-.94,3.57C11.16,57.23,11,57.1,10.88,57Z"/><path class="cls-1" d="M33.6,86.35l1.59-2.58.7.37L34.6,86.83Z"/><path class="cls-1" d="M36,58.23c-.11.26-.17.67-.35.74s-.51-.18-.77-.28c.12-.26.18-.63.38-.73S35.72,58.13,36,58.23Z"/><path class="cls-1" d="M30.14,54.14c-.43-.09-.86-.18-.17,0-.57-.39-.22-.15.12.09Z"/><path class="cls-1" d="M38.51,37.46a1.1,1.1,0,0,1-.09-.38s.19-.07.29-.1a1,1,0,0,1,.09.37S38.61,37.42,38.51,37.46Z"/><path class="cls-1" d="M47.2,71.27l-1.08-.12,0,0a3,3,0,0,1,1-.1Z"/><path class="cls-1" d="M22.11,14.18,23.22,14l-.26.25a4.36,4.36,0,0,0-.89-.15Z"/><path class="cls-1" d="M35.1,14.16l.2-.33-.19.34Z"/><path class="cls-1" d="M38.12,40.18l.2-.38-.23.35Z"/><path class="cls-1" d="M11.29,57.37l-.69.3.28-.7C11,57.1,11.16,57.23,11.29,57.37Z"/><path class="cls-1" d="M77,170.28,76.7,170l.5.07Z"/></g></g></svg>